<svg version="1.1" id="logo_header" xmlns="http://www.w3.org/2000/svg" xmlns:xlink="http://www.w3.org/1999/xlink" x="0" y="0" viewBox="0 0 305.7 30.8" xml:space="preserve"><style>.st1{fill:#81bc09}</style><g id="text"><defs><path id="SVGID_1_" d="M0 0h305.7v30.8H0z"/></defs><clipPath id="SVGID_2_"><use xlink:href="#SVGID_1_" overflow="visible"/></clipPath><g clip-path="url(#SVGID_2_)"><path class="st1" d="M230.8 24.2c-1.1 1-2.9 1.5-4.5 1.5-3.6 0-6.3-2.8-6.3-6.4 0-3.7 2.8-6.5 6.4-6.5 1.6 0 3.3.6 4.4 1.6l-1.1 1.7c-.9-.7-2-1.1-3.1-1.1-2.4 0-4.1 1.9-4.1 4.3 0 2.3 1.6 4.2 4 4.2 1.1 0 2.3-.4 3.1-1l1.2 1.7zM233.1 13h4.6c2.8 0 4.4 1.7 4.4 4 0 1.7-.9 3.1-2.4 3.7l3 4.9h-3l-2.6-4.6h-1.6v4.6H233V13h.1zm4.4 5.8c1.4 0 2.2-.7 2.2-1.8 0-1.2-.9-1.8-2.2-1.8h-1.9v3.7h1.9v-.1zM245 13h8.1v2.2h-5.6v3h4.8v2.2h-4.8v3.1h5.7v2.2H245V13zM262.8 22.6h-4.6l-1 3h-2.6l4.5-12.6h2.9l4.5 12.6h-2.7l-1-3zm-.7-2.1l-1.7-4.9-1.6 4.9h3.3zM276.2 15.2h-3.7v10.4H270V15.2h-3.7V13h9.8v2.2h.1zM278.5 13h2.5v12.6h-2.5V13zM288.7 21.7l2.8-8.8h2.6l-4.3 12.6h-2.2L283.2 13h2.7l2.8 8.7zM296.1 13h8.1v2.2h-5.6v3h4.8v2.2h-4.8v3.1h5.7v2.2h-8.2V13z"/></g><defs><path id="SVGID_3_" d="M0 0h305.7v30.8H0z"/></defs><clipPath id="SVGID_4_"><use xlink:href="#SVGID_3_" overflow="visible"/></clipPath><path d="M60.9 13c-3.4 0-6.1 2.5-6.1 6.5 0 4.1 2.8 6.3 6.3 6.3 1.8 0 3.4-.6 4.6-1.6l-.9-1.2c-1.1.7-2.3 1.2-3.6 1.2-2.6 0-4.2-1.6-4.4-4.2h9.9c0-.2.1-.5.1-.9-.2-3.4-2.4-6.1-5.9-6.1m-4.2 5.5c.2-2.2 1.9-3.9 4.1-3.9 2.4 0 3.8 1.8 3.9 3.9h-8z" clip-path="url(#SVGID_4_)" fill="#1e4079"/><defs><path id="SVGID_5_" d="M0 0h305.7v30.8H0z"/></defs><clipPath id="SVGID_6_"><use xlink:href="#SVGID_5_" overflow="visible"/></clipPath><path d="M84.1 15.1c-1-1.4-2.6-2.1-4.3-2.1-3.2 0-5.9 2.4-5.9 6.5 0 4.2 2.8 6.3 5.8 6.3 1.8 0 3.4-.8 4.4-2.3l.2 2h1.6V7.7l-1.8.3v7.1zm-4.2 9c-2.4 0-4.2-1.8-4.2-4.7 0-2.8 1.7-4.7 4.2-4.7 2.4 0 4.2 1.8 4.2 4.7 0 2.7-1.6 4.7-4.2 4.7" clip-path="url(#SVGID_6_)" fill="#1e4079"/><defs><path id="SVGID_7_" d="M0 0h305.7v30.8H0z"/></defs><clipPath id="SVGID_8_"><use xlink:href="#SVGID_7_" overflow="visible"/></clipPath><path d="M94.5 13c-3.4 0-6.1 2.5-6.1 6.5 0 4.1 2.8 6.3 6.3 6.3 1.8 0 3.4-.6 4.6-1.6l-.9-1.2c-1.1.7-2.3 1.2-3.6 1.2-2.6 0-4.2-1.6-4.4-4.2h9.9c0-.2.1-.5.1-.9-.2-3.4-2.4-6.1-5.9-6.1m-4.2 5.5c.2-2.2 1.9-3.9 4.1-3.9 2.4 0 3.8 1.8 3.9 3.9h-8z" clip-path="url(#SVGID_8_)" fill="#1e4079"/><defs><path id="SVGID_9_" d="M0 0h305.7v30.8H0z"/></defs><clipPath id="SVGID_10_"><use xlink:href="#SVGID_9_" overflow="visible"/></clipPath><path d="M109.1 13c-1.8 0-3.4.7-4.4 2.2l-.2-1.9h-1.6v12.3h1.9v-6.9c0-2.3 1.6-3.9 3.9-3.9 2.2 0 3.3 1.4 3.3 3.6v7.2h1.9v-7.5c-.1-3.1-1.8-5.1-4.8-5.1" clip-path="url(#SVGID_10_)" fill="#1e4079"/><g><defs><path id="SVGID_11_" d="M0 0h305.7v30.8H0z"/></defs><clipPath id="SVGID_12_"><use xlink:href="#SVGID_11_" overflow="visible"/></clipPath><path d="M123.2 13c-1.8 0-3.4.7-4.4 2.1V7.7l-1.9.4v17.5h1.9v-7.1c0-2.2 1.8-3.8 4-3.8 2.3 0 3.3 1.5 3.3 3.8v7h1.9V18c0-3-1.8-5-4.8-5" clip-path="url(#SVGID_12_)" fill="#1e4079"/></g><g><defs><path id="SVGID_13_" d="M0 0h305.7v30.8H0z"/></defs><clipPath id="SVGID_14_"><use xlink:href="#SVGID_13_" overflow="visible"/></clipPath><path d="M140.6 22.4v-5.2c0-2.8-1.8-4.2-5-4.2-1.6 0-3.3.3-4.6 1.2l.6 1.4c1.1-.6 2.4-.9 3.7-.9 2 0 3.4.8 3.4 2.9v1c-1-.2-2.2-.4-3.4-.4-3.6 0-5.4 1.6-5.4 4s1.9 3.6 4.3 3.6c2 0 3.8-.9 4.6-2.1 0 1.5 1.1 2.1 2.3 2.1l.2-1.4c-.5-.3-.7-.9-.7-2m-1.8-1.3c0 1.8-2.3 3.1-4.3 3.1-1.3 0-2.7-.6-2.7-2.1 0-1.4 1.1-2.3 3.8-2.3 1.2 0 2.4.2 3.2.4v.9z" clip-path="url(#SVGID_14_)" fill="#1e4079"/></g><g><defs><path id="SVGID_15_" d="M0 0h305.7v30.8H0z"/></defs><clipPath id="SVGID_16_"><use xlink:href="#SVGID_15_" overflow="visible"/></clipPath><path d="M157.9 13c-1.9 0-3.5.9-4.4 2.5-.7-1.6-2.1-2.5-3.9-2.5-1.7 0-3 .8-3.9 2.2l-.2-1.9h-1.6v12.3h1.9v-6.9c0-2.2 1.3-3.9 3.5-3.9 2 0 2.8 1.5 2.8 3.6v7.2h1.9v-6.9c0-2.2 1.3-4 3.5-3.9 2.1 0 2.8 1.5 2.8 3.6v7.2h1.9v-7.5c0-3-1.3-5.1-4.3-5.1" clip-path="url(#SVGID_16_)" fill="#1e4079"/></g><g><defs><path id="SVGID_17_" d="M0 0h305.7v30.8H0z"/></defs><clipPath id="SVGID_18_"><use xlink:href="#SVGID_17_" overflow="visible"/></clipPath><path d="M179.3 13c-1.9 0-3.5.9-4.4 2.5-.6-1.6-2.1-2.5-3.9-2.5-1.7 0-3 .8-3.9 2.2l-.2-1.9h-1.6v12.3h1.9v-6.9c0-2.2 1.3-3.9 3.5-3.9 2 0 2.8 1.5 2.8 3.6v7.2h1.9v-6.9c0-2.2 1.3-4 3.5-3.9 2.1 0 2.8 1.5 2.8 3.6v7.2h1.9v-7.5c-.1-3-1.4-5.1-4.3-5.1" clip-path="url(#SVGID_18_)" fill="#1e4079"/></g><g><defs><path id="SVGID_19_" d="M0 0h305.7v30.8H0z"/></defs><clipPath id="SVGID_20_"><use xlink:href="#SVGID_19_" overflow="visible"/></clipPath><path d="M192 13c-3.4 0-6.1 2.5-6.1 6.5 0 4.1 2.8 6.3 6.2 6.3 1.8 0 3.4-.6 4.6-1.6l-.9-1.2c-1.1.7-2.3 1.2-3.6 1.2-2.6 0-4.2-1.6-4.4-4.2h9.9c0-.2.1-.5.1-.9-.1-3.4-2.3-6.1-5.8-6.1m-4.2 5.5c.2-2.2 1.9-3.9 4.1-3.9 2.4 0 3.8 1.8 3.9 3.9h-8z" clip-path="url(#SVGID_20_)" fill="#1e4079"/></g><g><defs><path id="SVGID_21_" d="M0 0h305.7v30.8H0z"/></defs><clipPath id="SVGID_22_"><use xlink:href="#SVGID_21_" overflow="visible"/></clipPath><path d="M205.5 13c-1.7 0-2.8.8-3.6 2.3l-.2-2H200v12.3h1.9v-6.1c0-2.5 1-4.7 3.5-4.7.4 0 .9.1 1.3.2l.3-1.7c-.5-.3-1-.3-1.5-.3" clip-path="url(#SVGID_22_)" fill="#1e4079"/></g><g><defs><path id="SVGID_23_" d="M0 0h305.7v30.8H0z"/></defs><clipPath id="SVGID_24_"><use xlink:href="#SVGID_23_" overflow="visible"/></clipPath><path clip-path="url(#SVGID_24_)" fill="#1e4079" d="M69.3 13h1.9v12.6h-1.9z"/></g><g><defs><path id="SVGID_25_" d="M0 0h305.7v30.8H0z"/></defs><clipPath id="SVGID_26_"><use xlink:href="#SVGID_25_" overflow="visible"/></clipPath><path clip-path="url(#SVGID_26_)" fill="#1e4079" d="M69.3 8.1h1.9V10h-1.9z"/></g><g><defs><path id="SVGID_27_" d="M0 0h305.7v30.8H0z"/></defs><clipPath id="SVGID_28_"><use xlink:href="#SVGID_27_" overflow="visible"/></clipPath><path clip-path="url(#SVGID_28_)" fill="#1e4079" d="M53.3 8.1l-4.5 14.7-3.9-12.5H43l-3.8 12.5-4.5-14.7h-2.1l5.5 17.4h2l3.8-12.2 3.8 12.2h2l5.6-17.4z"/></g></g><g id="icon"><defs><path id="SVGID_29_" d="M13.4 0c-1.1 0-2.2.2-3.4.5-1 .3-2 .6-2.9 1.1.1 0 .1-.1.2-.1.4-.1.8-.3 1.2-.4.8-.2 1.8-.4 2.9-.4h1.3c3.5.2 6.5 1.7 8.7 4 .6.6 1.2 1.3 1.7 2.1 1.7 2.4 2.1 3.8 2.7 4.6.1.2.3.2.4.2.3 0 .6-.2.6-.5v-.3c0-.2-.1-.5-.2-.7-1.6-6-7-10.1-13-10.1h-.2z"/></defs><clipPath id="SVGID_30_"><use xlink:href="#SVGID_29_" overflow="visible"/></clipPath><radialGradient id="SVGID_31_" cx="-94.653" cy="258.508" r="1" gradientTransform="translate(1324.599 -3581.257) scale(13.8838)" gradientUnits="userSpaceOnUse"><stop offset="0" stop-color="#e1e319"/><stop offset="1" stop-color="#62ba46"/></radialGradient><path clip-path="url(#SVGID_30_)" fill="url(#SVGID_31_)" d="M7.2 0h19.7v11.7H7.2z"/><g><defs><path id="SVGID_32_" d="M0 12.9c.5-.6 1.3-1 2.1-.9.4 0 .7.1 1 .2.2.1.4.2.5.3.8.6 1.4 1.6 2 2.5.9 1.5 2.5 5.4 4.8 7.6l.3.3c1.6 1.5 3.7 2.5 6 2.5 3.6.1 6.7-1.8 8.3-4.7v-.1c-.5.4-1.3.7-2.1.6h-.7c-1.7-.3-3.4-1.8-5-4.5-1.4-2.4-2.9-5.1-4.4-7-.8-1-2.1-2-3.6-2.6-.7-.2-1.4-.3-2.1-.3H7c-3.6 0-6.6 2.6-7 6.1"/></defs><clipPath id="SVGID_33_"><use xlink:href="#SVGID_32_" overflow="visible"/></clipPath><radialGradient id="SVGID_34_" cx="-94.653" cy="258.508" r="1" gradientTransform="translate(1324.588 -3581.233) scale(13.8837)" gradientUnits="userSpaceOnUse"><stop offset="0" stop-color="#e1e319"/><stop offset="1" stop-color="#62ba46"/></radialGradient><path clip-path="url(#SVGID_33_)" fill="url(#SVGID_34_)" d="M0 6.8h25.1v18.9H0z"/></g><g><defs><path id="SVGID_35_" d="M7.3 2.4c-.5.2-.9.4-1.3.6-1.8 1-3.4 2.4-4.4 4.2 0 .1-.1.1-.1.2 1.7-1.8 4.1-2.8 6.7-2.7 1.3 0 2.5.4 3.6.9.6.3 1.2.7 1.8 1.2 1.7 1.5 3.2 3.8 4.7 6.3 1.2 2.1 2.1 3.5 2.7 4.4 1.1 1.5 2.2 2.1 3.3 2.1h.4c.6-.1 1.1-.5 1.5-1.1.2-.3.3-.7.5-1.1.4-1.4.6-3 .5-4.5-.1.1-.1.3-.2.4-.1.1-.1.1-.2.1h-.1c-.1 0-.1.1-.2.1h-.2-.1-.2c-.1 0-.3 0-.4-.1-.5-.2-.9-.7-1.4-1.5-1.3-2-2.8-5-5.1-7.1s-5.2-3.1-8-3.1c-1.4.1-2.7.3-3.8.7"/></defs><clipPath id="SVGID_36_"><use xlink:href="#SVGID_35_" overflow="visible"/></clipPath><radialGradient id="SVGID_37_" cx="-94.653" cy="258.508" r="1" gradientTransform="translate(1324.609 -3581.282) scale(13.8839)" gradientUnits="userSpaceOnUse"><stop offset="0" stop-color="#e1e319"/><stop offset="1" stop-color="#62ba46"/></radialGradient><path clip-path="url(#SVGID_36_)" fill="url(#SVGID_37_)" d="M1.4 1.8h25.8v17.9H1.4z"/></g></g><g id="pipe"><defs><path id="SVGID_38_" d="M0 0h305.7v30.8H0z"/></defs><clipPath id="SVGID_39_"><use xlink:href="#SVGID_38_" overflow="visible"/></clipPath><path clip-path="url(#SVGID_39_)" fill="none" stroke="#81bc09" stroke-miterlimit="10" d="M213.5 9v20.4"/></g></svg>